<svg width="300" height="112" viewBox="0 0 300 112" fill="none" xmlns="http://www.w3.org/2000/svg">
<g clip-path="url(#clip0_603_10)">
<path d="M0.299074 104.252V76.4602C0.229428 53.8231 0.131927 7.71305 0.299094 4.36979C0.466261 1.02651 3.22449 0.400464 4.89614 0.609372C6.1499 0.610108 5.14694 0.483081 10.3291 0.817414C15.5113 1.15174 16.6675 6.11102 16.5978 8.54888V13.146V90.4606C16.5978 92.3413 18.0605 93.177 21.4039 93.177C25.0258 92.8287 32.6046 92.7734 34.7773 94.2217C37.9115 96.3115 39.3741 100.073 37.4937 105.297C35.9891 109.476 31.0159 110.103 28.7174 109.893H5.31407C0.674433 109.893 0.51058 107.431 0.304553 104.334L0.299074 104.252Z" fill="#041E46"/>
<path d="M102.781 104.252V76.4602C102.711 53.8231 102.614 7.71305 102.781 4.36979C102.948 1.02651 105.706 0.400464 107.378 0.609372C108.631 0.610108 107.628 0.483081 112.811 0.817414C117.993 1.15174 119.149 6.11102 119.079 8.54888V13.146V90.4606C119.079 92.3413 120.542 93.177 123.886 93.177C127.508 92.8287 135.086 92.7734 137.259 94.2217C140.393 96.3115 141.856 100.073 139.975 105.297C138.471 109.476 133.498 110.103 131.199 109.893H107.796C103.115 109.893 102.781 107.596 102.781 104.252Z" fill="#041E46"/>
<path fill-rule="evenodd" clip-rule="evenodd" d="M68.0032 0.401123C53.6929 0.401123 42.0925 12.0018 42.0925 26.3119V83.1487C42.0925 97.4587 53.6929 109.059 68.0032 109.059C82.3132 109.059 93.914 97.4587 93.914 83.1487V26.3119C93.914 12.0018 82.3132 0.401123 68.0032 0.401123ZM68.0032 17.5357C62.6945 17.5357 58.3912 21.8391 58.3912 27.1478V82.7305C58.3912 88.0393 62.6945 92.3426 68.0032 92.3426C73.312 92.3426 77.6153 88.0393 77.6153 82.7305V27.1478C77.6153 21.8391 73.312 17.5357 68.0032 17.5357Z" fill="#041E46"/>
<path fill-rule="evenodd" clip-rule="evenodd" d="M204.66 65.3945V96.9471C204.591 99.733 204.869 105.849 206.541 108.022C208.63 110.738 214.69 112.201 218.034 109.067C220.708 106.559 221.516 101.196 221.586 98.8278C221.516 97.1561 222.129 93.8546 225.138 94.0216C228.147 94.1889 233.357 94.0912 235.586 94.0216C236.77 93.952 239.222 94.565 239.556 97.574C239.644 98.3611 239.676 99.1757 239.709 100.006C239.835 103.145 239.969 106.511 243.108 109.485C247.079 113.246 253.765 110.738 255.228 106.559C256.398 103.216 256.969 93.4643 257.109 89.0067V33.0059C256.83 29.8018 255.98 22.5161 254.81 19.0056C253.347 14.6175 248.542 6.67712 239.556 3.54274C230.571 0.408361 222.84 1.45316 216.153 6.05024C209.466 10.6473 204.865 16.2891 205.078 31.334C205.078 36.2611 204.971 42.583 204.865 48.8172C204.762 54.8806 204.66 60.8611 204.66 65.3945ZM221.168 59.5436V72.2898C221.028 74.0314 221.335 77.5139 223.675 77.5139H235.586C237.118 77.7925 240.141 77.263 239.974 72.9168C239.807 68.5705 239.904 47.5633 239.974 37.6027V28.6177C239.835 26.5281 238.804 21.931 235.795 20.2593C232.034 18.1697 227.228 18.1697 225.138 20.2593C225.053 20.344 224.97 20.4273 224.887 20.5095C222.932 22.4567 221.577 23.8058 221.377 28.6177C221.21 32.6295 221.168 50.9066 221.168 59.5436Z" fill="#041E46"/>
<path d="M165.585 1.66292C162.451 1.45397 163.287 5.21489 163.496 6.05105C164.123 7.72273 163.747 7.01226 165.585 10.8571C167.884 15.6631 170.809 17.9617 175.615 18.1706C179.46 18.3378 180.003 21.1657 179.794 22.5588V69.1563C179.794 77.3058 180.421 79.3949 179.168 86.5C177.926 93.5385 170.6 95.076 165.794 92.7687C160.57 90.2608 160.57 85.0371 160.57 78.1417C160.57 71.2461 159.944 70.8282 159.525 69.7832C159.108 68.7384 155.347 65.813 149.913 66.649C145.567 67.3176 144.341 71.8031 144.272 73.9625C143.923 79.3952 144.397 92.1418 149.078 99.6644C154.928 109.067 167.048 111.992 176.242 109.694C185.545 107.369 190.451 101.963 193.586 96.112C196.093 91.4314 196.442 84.1318 196.302 81.0669V37.8128V6.05105C196.302 2.54053 193.516 1.66292 192.123 1.66292C184.322 1.73257 168.093 1.83008 165.585 1.66292Z" fill="#041E46"/>
<path fill-rule="evenodd" clip-rule="evenodd" d="M282.392 36.9772C292.086 36.9772 299.944 29.1184 299.944 19.4246C299.944 9.73059 292.086 1.87207 282.392 1.87207C272.698 1.87207 264.839 9.73059 264.839 19.4246C264.839 29.1184 272.698 36.9772 282.392 36.9772ZM277.004 18.3787V25.4236C276.934 26.2064 277.13 27.7719 278.474 27.7719H286.457C287.087 27.8431 288.305 27.6011 288.137 26.064C287.969 24.527 287.927 20.3 287.927 18.3787C287.997 18.0228 288.263 17.3539 288.767 17.5247C288.881 17.5632 289.001 17.6156 289.125 17.6694C289.687 17.9137 290.313 18.1861 290.658 17.3112C290.994 16.4573 291.638 14.536 291.918 13.682C292.058 13.3974 292.128 12.7427 291.288 12.4011C290.448 12.0595 287.857 11.4049 286.667 11.1202C286.457 11.0491 285.911 10.9921 285.406 11.3337C285.203 11.4717 285.043 11.6765 284.87 11.8978C284.509 12.3613 284.091 12.8971 283.096 13.0416C281.625 13.2551 280.155 12.1876 279.945 11.7607C279.735 11.3337 279.315 11.1202 278.474 11.1202C277.802 11.1202 275.113 12.1165 273.853 12.6146C273.573 12.6858 272.971 12.9989 272.802 13.6821C272.634 14.3652 273.433 15.9592 273.853 16.6708L274.483 17.7382C274.763 18.0229 275.491 18.4641 276.164 17.9517C276.836 17.4393 277.004 18.0229 277.004 18.3787Z" fill="#FC6133"/>
</g>
<defs>
<clipPath id="clip0_603_10">
<rect width="300" height="112" fill="white"/>
</clipPath>
</defs>
</svg>
